<svg preserveAspectRatio="none" width="100%" height="100%" overflow="visible" style="display: block;" viewBox="0 0 28 28" fill="none" xmlns="http://www.w3.org/2000/svg">
<g id="SquaresTwo">
<g id="Vector">
</g>
<path id="Vector_2" d="M11.375 10.5H6.125C5.64175 10.5 5.25 10.8918 5.25 11.375V16.625C5.25 17.1082 5.64175 17.5 6.125 17.5H11.375C11.8582 17.5 12.25 17.1082 12.25 16.625V11.375C12.25 10.8918 11.8582 10.5 11.375 10.5Z" stroke="var(--stroke-0, #0F0F10)" stroke-width="1.75" stroke-linecap="round" stroke-linejoin="round"/>
<path id="Vector_3" d="M21.875 10.5H16.625C16.1418 10.5 15.75 10.8918 15.75 11.375V16.625C15.75 17.1082 16.1418 17.5 16.625 17.5H21.875C22.3582 17.5 22.75 17.1082 22.75 16.625V11.375C22.75 10.8918 22.3582 10.5 21.875 10.5Z" stroke="var(--stroke-0, #0F0F10)" stroke-width="1.75" stroke-linecap="round" stroke-linejoin="round"/>
</g>
</svg>
