<svg preserveAspectRatio="none" width="100%" height="100%" overflow="visible" style="display: block;" viewBox="0 0 28 28" fill="none" xmlns="http://www.w3.org/2000/svg">
<g id="SquareFive">
<g id="Vector">
</g>
<path id="Vector_2" d="M11.375 5.25H6.125C5.64175 5.25 5.25 5.64175 5.25 6.125V11.375C5.25 11.8582 5.64175 12.25 6.125 12.25H11.375C11.8582 12.25 12.25 11.8582 12.25 11.375V6.125C12.25 5.64175 11.8582 5.25 11.375 5.25Z" stroke="var(--stroke-0, #0F0F10)" stroke-width="2" stroke-linecap="round" stroke-linejoin="round"/>
<path id="Vector_3" d="M21.875 5.25H16.625C16.1418 5.25 15.75 5.64175 15.75 6.125V11.375C15.75 11.8582 16.1418 12.25 16.625 12.25H21.875C22.3582 12.25 22.75 11.8582 22.75 11.375V6.125C22.75 5.64175 22.3582 5.25 21.875 5.25Z" stroke="var(--stroke-0, #0F0F10)" stroke-width="2" stroke-linecap="round" stroke-linejoin="round"/>
<path id="Vector_4" d="M11.375 15.75H6.125C5.64175 15.75 5.25 16.1418 5.25 16.625V21.875C5.25 22.3582 5.64175 22.75 6.125 22.75H11.375C11.8582 22.75 12.25 22.3582 12.25 21.875V16.625C12.25 16.1418 11.8582 15.75 11.375 15.75Z" stroke="var(--stroke-0, #0F0F10)" stroke-width="2" stroke-linecap="round" stroke-linejoin="round"/>
<path id="Vector_5" d="M21.875 15.75H16.625C16.1418 15.75 15.75 16.1418 15.75 16.625V21.875C15.75 22.3582 16.1418 22.75 16.625 22.75H21.875C22.3582 22.75 22.75 22.3582 22.75 21.875V16.625C22.75 16.1418 22.3582 15.75 21.875 15.75Z" stroke="var(--stroke-0, #0F0F10)" stroke-width="2" stroke-linecap="round" stroke-linejoin="round"/>
<path id="Vector_6" d="M17 10H11C10.4477 10 10 10.4477 10 11V17C10 17.5523 10.4477 18 11 18H17C17.5523 18 18 17.5523 18 17V11C18 10.4477 17.5523 10 17 10Z" stroke="var(--stroke-0, #0F0F10)" stroke-width="2" stroke-linecap="round" stroke-linejoin="round"/>
</g>
</svg>
