<svg preserveAspectRatio="none" width="100%" height="100%" overflow="visible" style="display: block;" viewBox="0 0 28 28" fill="none" xmlns="http://www.w3.org/2000/svg">
<g id="SquaresThree">
<g id="Vector">
</g>
<path id="Vector_2" d="M16.625 5.25H11.375C10.8918 5.25 10.5 5.64175 10.5 6.125V11.375C10.5 11.8582 10.8918 12.25 11.375 12.25H16.625C17.1082 12.25 17.5 11.8582 17.5 11.375V6.125C17.5 5.64175 17.1082 5.25 16.625 5.25Z" stroke="var(--stroke-0, #A4A4A7)" stroke-width="1.75" stroke-linecap="round" stroke-linejoin="round"/>
<path id="Vector_3" d="M11.375 15.75H6.125C5.64175 15.75 5.25 16.1418 5.25 16.625V21.875C5.25 22.3582 5.64175 22.75 6.125 22.75H11.375C11.8582 22.75 12.25 22.3582 12.25 21.875V16.625C12.25 16.1418 11.8582 15.75 11.375 15.75Z" stroke="var(--stroke-0, #A4A4A7)" stroke-width="1.75" stroke-linecap="round" stroke-linejoin="round"/>
<path id="Vector_4" d="M21.875 15.75H16.625C16.1418 15.75 15.75 16.1418 15.75 16.625V21.875C15.75 22.3582 16.1418 22.75 16.625 22.75H21.875C22.3582 22.75 22.75 22.3582 22.75 21.875V16.625C22.75 16.1418 22.3582 15.75 21.875 15.75Z" stroke="var(--stroke-0, #A4A4A7)" stroke-width="1.75" stroke-linecap="round" stroke-linejoin="round"/>
</g>
</svg>
